<mxfile host="app.diagrams.net" modified="2024-01-12T11:17:05.595Z" agent="Mozilla/5.0 (Windows NT 10.0; Win64; x64) AppleWebKit/537.36 (KHTML, like Gecko) Chrome/120.0.0.0 Safari/537.36" etag="kJQ7j9Qp27CI7RbAtMJv" version="22.1.18" type="github">
  <diagram name="Page-1" id="4bd5d27a-524c-7e24-5d5f-89a86ee4fca1">
    <mxGraphModel dx="1273" dy="1714" grid="1" gridSize="10" guides="1" tooltips="1" connect="1" arrows="1" fold="1" page="1" pageScale="1" pageWidth="1100" pageHeight="850" background="none" math="0" shadow="0">
      <root>
        <mxCell id="0" />
        <mxCell id="1" parent="0" />
        <mxCell id="b0zFCqW9HWxMV5RH-Vs3-46" value="" style="rounded=0;whiteSpace=wrap;html=1;fillColor=#d5e8d4;strokeColor=#82b366;" vertex="1" parent="1">
          <mxGeometry x="240" y="-830" width="380" height="450" as="geometry" />
        </mxCell>
        <mxCell id="b0zFCqW9HWxMV5RH-Vs3-1" value="" style="verticalLabelPosition=bottom;html=1;verticalAlign=top;align=center;shape=mxgraph.floorplan.wallCorner;fillColor=strokeColor;" vertex="1" parent="1">
          <mxGeometry x="240" y="-840" width="1000" height="1600" as="geometry" />
        </mxCell>
        <mxCell id="b0zFCqW9HWxMV5RH-Vs3-4" value="" style="verticalLabelPosition=bottom;html=1;verticalAlign=top;align=center;shape=mxgraph.floorplan.wallCorner;fillColor=strokeColor;direction=west" vertex="1" parent="1">
          <mxGeometry x="250" y="-830" width="990" height="1590" as="geometry" />
        </mxCell>
        <mxCell id="b0zFCqW9HWxMV5RH-Vs3-6" value="" style="verticalLabelPosition=bottom;html=1;verticalAlign=top;align=center;shape=mxgraph.floorplan.doorDouble;aspect=fixed;rotation=-180;" vertex="1" parent="1">
          <mxGeometry x="1050" y="667.5" width="160" height="85" as="geometry" />
        </mxCell>
        <mxCell id="b0zFCqW9HWxMV5RH-Vs3-7" value="" style="verticalLabelPosition=bottom;html=1;verticalAlign=top;align=center;shape=mxgraph.floorplan.stairsRest;rotation=-180;" vertex="1" parent="1">
          <mxGeometry x="240" y="410" width="300" height="200" as="geometry" />
        </mxCell>
        <mxCell id="b0zFCqW9HWxMV5RH-Vs3-8" value="" style="verticalLabelPosition=bottom;html=1;verticalAlign=top;align=center;shape=mxgraph.floorplan.wall;fillColor=strokeColor;direction=south;" vertex="1" parent="1">
          <mxGeometry x="630" y="525" width="10" height="235" as="geometry" />
        </mxCell>
        <mxCell id="b0zFCqW9HWxMV5RH-Vs3-9" value="" style="verticalLabelPosition=bottom;html=1;verticalAlign=top;align=center;shape=mxgraph.floorplan.wall;fillColor=strokeColor;" vertex="1" parent="1">
          <mxGeometry x="240" y="400" width="390" height="10" as="geometry" />
        </mxCell>
        <mxCell id="b0zFCqW9HWxMV5RH-Vs3-10" value="" style="verticalLabelPosition=bottom;html=1;verticalAlign=top;align=center;shape=mxgraph.floorplan.doorLeft;aspect=fixed;rotation=-90;" vertex="1" parent="1">
          <mxGeometry x="640" y="620" width="80" height="85" as="geometry" />
        </mxCell>
        <mxCell id="b0zFCqW9HWxMV5RH-Vs3-11" value="" style="verticalLabelPosition=bottom;html=1;verticalAlign=top;align=center;shape=mxgraph.floorplan.wallCorner;fillColor=strokeColor;" vertex="1" parent="1">
          <mxGeometry x="630" y="320" width="600" height="220" as="geometry" />
        </mxCell>
        <mxCell id="b0zFCqW9HWxMV5RH-Vs3-12" value="" style="verticalLabelPosition=bottom;html=1;verticalAlign=top;align=center;shape=mxgraph.floorplan.desk_corner_2;rotation=-180;" vertex="1" parent="1">
          <mxGeometry x="1070" y="400" width="150" height="120" as="geometry" />
        </mxCell>
        <mxCell id="b0zFCqW9HWxMV5RH-Vs3-13" value="" style="verticalLabelPosition=bottom;html=1;verticalAlign=top;align=center;shape=mxgraph.floorplan.couch;rotation=0;" vertex="1" parent="1">
          <mxGeometry x="750" y="360" width="150" height="80" as="geometry" />
        </mxCell>
        <mxCell id="b0zFCqW9HWxMV5RH-Vs3-14" value="" style="verticalLabelPosition=bottom;html=1;verticalAlign=top;align=center;shape=mxgraph.floorplan.elevator;" vertex="1" parent="1">
          <mxGeometry x="250" y="652.5" width="100" height="100" as="geometry" />
        </mxCell>
        <mxCell id="b0zFCqW9HWxMV5RH-Vs3-15" value="" style="verticalLabelPosition=bottom;html=1;verticalAlign=top;align=center;shape=mxgraph.floorplan.doorRight;aspect=fixed;rotation=-180;" vertex="1" parent="1">
          <mxGeometry x="470" y="670" width="80" height="85" as="geometry" />
        </mxCell>
        <mxCell id="b0zFCqW9HWxMV5RH-Vs3-16" value="" style="verticalLabelPosition=bottom;html=1;verticalAlign=top;align=center;shape=mxgraph.floorplan.couch;rotation=-90;" vertex="1" parent="1">
          <mxGeometry x="630" y="470" width="150" height="80" as="geometry" />
        </mxCell>
        <mxCell id="b0zFCqW9HWxMV5RH-Vs3-17" value="" style="verticalLabelPosition=bottom;html=1;verticalAlign=top;align=center;shape=mxgraph.floorplan.doorLeft;aspect=fixed;rotation=-180;" vertex="1" parent="1">
          <mxGeometry x="950" y="240" width="80" height="85" as="geometry" />
        </mxCell>
        <mxCell id="b0zFCqW9HWxMV5RH-Vs3-18" value="" style="verticalLabelPosition=bottom;html=1;verticalAlign=top;align=center;shape=mxgraph.floorplan.office_chair;" vertex="1" parent="1">
          <mxGeometry x="1110" y="384" width="40" height="43" as="geometry" />
        </mxCell>
        <mxCell id="b0zFCqW9HWxMV5RH-Vs3-19" value="" style="verticalLabelPosition=bottom;html=1;verticalAlign=top;align=center;shape=mxgraph.floorplan.wallCorner;fillColor=strokeColor;" vertex="1" parent="1">
          <mxGeometry x="1030" y="80" width="200" height="253" as="geometry" />
        </mxCell>
        <mxCell id="b0zFCqW9HWxMV5RH-Vs3-20" value="" style="verticalLabelPosition=bottom;html=1;verticalAlign=top;align=center;shape=mxgraph.floorplan.doorLeft;aspect=fixed;rotation=90;" vertex="1" parent="1">
          <mxGeometry x="950" y="90" width="80" height="85" as="geometry" />
        </mxCell>
        <mxCell id="b0zFCqW9HWxMV5RH-Vs3-21" value="" style="verticalLabelPosition=bottom;html=1;verticalAlign=top;align=center;shape=mxgraph.floorplan.window;" vertex="1" parent="1">
          <mxGeometry x="640" y="750" width="400" height="10" as="geometry" />
        </mxCell>
        <mxCell id="b0zFCqW9HWxMV5RH-Vs3-22" value="" style="verticalLabelPosition=bottom;html=1;verticalAlign=top;align=center;shape=mxgraph.floorplan.window;rotation=90;" vertex="1" parent="1">
          <mxGeometry x="1016.88" y="534.38" width="433.75" height="22.5" as="geometry" />
        </mxCell>
        <mxCell id="b0zFCqW9HWxMV5RH-Vs3-23" value="" style="verticalLabelPosition=bottom;html=1;verticalAlign=top;align=center;shape=mxgraph.floorplan.workstation;rotation=-180;" vertex="1" parent="1">
          <mxGeometry x="1100" y="470" width="50" height="40" as="geometry" />
        </mxCell>
        <mxCell id="b0zFCqW9HWxMV5RH-Vs3-24" value="" style="verticalLabelPosition=bottom;html=1;verticalAlign=top;align=center;shape=mxgraph.floorplan.plant;" vertex="1" parent="1">
          <mxGeometry x="690" y="375" width="47" height="51" as="geometry" />
        </mxCell>
        <mxCell id="b0zFCqW9HWxMV5RH-Vs3-25" value="" style="verticalLabelPosition=bottom;html=1;verticalAlign=top;align=center;shape=mxgraph.floorplan.wallCorner;fillColor=strokeColor;direction=west" vertex="1" parent="1">
          <mxGeometry x="250" y="-830" width="380" height="460" as="geometry" />
        </mxCell>
        <mxCell id="b0zFCqW9HWxMV5RH-Vs3-29" value="" style="verticalLabelPosition=bottom;html=1;verticalAlign=top;align=center;shape=mxgraph.floorplan.desk_corner;rotation=-180;" vertex="1" parent="1">
          <mxGeometry x="250" y="-760" width="150" height="150" as="geometry" />
        </mxCell>
        <mxCell id="b0zFCqW9HWxMV5RH-Vs3-30" value="" style="verticalLabelPosition=bottom;html=1;verticalAlign=top;align=center;shape=mxgraph.floorplan.desk_corner;rotation=90;" vertex="1" parent="1">
          <mxGeometry x="250" y="-610" width="150" height="150" as="geometry" />
        </mxCell>
        <mxCell id="b0zFCqW9HWxMV5RH-Vs3-31" value="" style="verticalLabelPosition=bottom;html=1;verticalAlign=top;align=center;shape=mxgraph.floorplan.desk_corner;" vertex="1" parent="1">
          <mxGeometry x="400" y="-610" width="150" height="150" as="geometry" />
        </mxCell>
        <mxCell id="b0zFCqW9HWxMV5RH-Vs3-32" value="" style="verticalLabelPosition=bottom;html=1;verticalAlign=top;align=center;shape=mxgraph.floorplan.desk_corner;rotation=-90;" vertex="1" parent="1">
          <mxGeometry x="400" y="-760" width="150" height="150" as="geometry" />
        </mxCell>
        <mxCell id="b0zFCqW9HWxMV5RH-Vs3-33" value="" style="verticalLabelPosition=bottom;html=1;verticalAlign=top;align=center;shape=mxgraph.floorplan.doorLeft;aspect=fixed;rotation=90;" vertex="1" parent="1">
          <mxGeometry x="540" y="-830" width="80" height="85" as="geometry" />
        </mxCell>
        <mxCell id="b0zFCqW9HWxMV5RH-Vs3-34" value="" style="verticalLabelPosition=bottom;html=1;verticalAlign=top;align=center;shape=mxgraph.floorplan.floor_lamp;" vertex="1" parent="1">
          <mxGeometry x="380" y="-630" width="50" height="50" as="geometry" />
        </mxCell>
        <mxCell id="b0zFCqW9HWxMV5RH-Vs3-36" value="" style="verticalLabelPosition=bottom;html=1;verticalAlign=top;align=center;shape=mxgraph.floorplan.copier;rotation=90;" vertex="1" parent="1">
          <mxGeometry x="530" y="-470" width="110" height="60" as="geometry" />
        </mxCell>
        <mxCell id="b0zFCqW9HWxMV5RH-Vs3-37" value="" style="verticalLabelPosition=bottom;html=1;verticalAlign=top;align=center;shape=mxgraph.floorplan.workstation;rotation=-135;" vertex="1" parent="1">
          <mxGeometry x="420" y="-680" width="50" height="40" as="geometry" />
        </mxCell>
        <mxCell id="b0zFCqW9HWxMV5RH-Vs3-38" value="" style="verticalLabelPosition=bottom;html=1;verticalAlign=top;align=center;shape=mxgraph.floorplan.workstation;rotation=-225;" vertex="1" parent="1">
          <mxGeometry x="330" y="-680" width="50" height="40" as="geometry" />
        </mxCell>
        <mxCell id="b0zFCqW9HWxMV5RH-Vs3-43" value="" style="verticalLabelPosition=bottom;html=1;verticalAlign=top;align=center;shape=mxgraph.floorplan.workstation;rotation=45;" vertex="1" parent="1">
          <mxGeometry x="330" y="-580" width="50" height="40" as="geometry" />
        </mxCell>
        <mxCell id="b0zFCqW9HWxMV5RH-Vs3-45" value="" style="verticalLabelPosition=bottom;html=1;verticalAlign=top;align=center;shape=mxgraph.floorplan.workstation;rotation=-45;" vertex="1" parent="1">
          <mxGeometry x="430" y="-580" width="50" height="40" as="geometry" />
        </mxCell>
        <mxCell id="b0zFCqW9HWxMV5RH-Vs3-47" value="" style="rounded=0;whiteSpace=wrap;html=1;fillColor=#d5e8d4;strokeColor=#82b366;" vertex="1" parent="1">
          <mxGeometry x="850" y="-830" width="380" height="450" as="geometry" />
        </mxCell>
        <mxCell id="b0zFCqW9HWxMV5RH-Vs3-49" value="" style="verticalLabelPosition=bottom;html=1;verticalAlign=top;align=center;shape=mxgraph.floorplan.desk_corner;rotation=-180;" vertex="1" parent="1">
          <mxGeometry x="930" y="-760" width="150" height="150" as="geometry" />
        </mxCell>
        <mxCell id="b0zFCqW9HWxMV5RH-Vs3-50" value="" style="verticalLabelPosition=bottom;html=1;verticalAlign=top;align=center;shape=mxgraph.floorplan.desk_corner;rotation=90;" vertex="1" parent="1">
          <mxGeometry x="930" y="-610" width="150" height="150" as="geometry" />
        </mxCell>
        <mxCell id="b0zFCqW9HWxMV5RH-Vs3-51" value="" style="verticalLabelPosition=bottom;html=1;verticalAlign=top;align=center;shape=mxgraph.floorplan.desk_corner;" vertex="1" parent="1">
          <mxGeometry x="1080" y="-610" width="150" height="150" as="geometry" />
        </mxCell>
        <mxCell id="b0zFCqW9HWxMV5RH-Vs3-52" value="" style="verticalLabelPosition=bottom;html=1;verticalAlign=top;align=center;shape=mxgraph.floorplan.desk_corner;rotation=-90;" vertex="1" parent="1">
          <mxGeometry x="1080" y="-760" width="150" height="150" as="geometry" />
        </mxCell>
        <mxCell id="b0zFCqW9HWxMV5RH-Vs3-54" value="" style="verticalLabelPosition=bottom;html=1;verticalAlign=top;align=center;shape=mxgraph.floorplan.floor_lamp;" vertex="1" parent="1">
          <mxGeometry x="1060" y="-630" width="50" height="50" as="geometry" />
        </mxCell>
        <mxCell id="b0zFCqW9HWxMV5RH-Vs3-55" value="" style="verticalLabelPosition=bottom;html=1;verticalAlign=top;align=center;shape=mxgraph.floorplan.copier;rotation=-90;" vertex="1" parent="1">
          <mxGeometry x="830" y="-470" width="110" height="60" as="geometry" />
        </mxCell>
        <mxCell id="b0zFCqW9HWxMV5RH-Vs3-56" value="" style="verticalLabelPosition=bottom;html=1;verticalAlign=top;align=center;shape=mxgraph.floorplan.workstation;rotation=-135;" vertex="1" parent="1">
          <mxGeometry x="1100" y="-680" width="50" height="40" as="geometry" />
        </mxCell>
        <mxCell id="b0zFCqW9HWxMV5RH-Vs3-57" value="" style="verticalLabelPosition=bottom;html=1;verticalAlign=top;align=center;shape=mxgraph.floorplan.workstation;rotation=-225;" vertex="1" parent="1">
          <mxGeometry x="1010" y="-680" width="50" height="40" as="geometry" />
        </mxCell>
        <mxCell id="b0zFCqW9HWxMV5RH-Vs3-58" value="" style="verticalLabelPosition=bottom;html=1;verticalAlign=top;align=center;shape=mxgraph.floorplan.workstation;rotation=45;" vertex="1" parent="1">
          <mxGeometry x="1010" y="-580" width="50" height="40" as="geometry" />
        </mxCell>
        <mxCell id="b0zFCqW9HWxMV5RH-Vs3-59" value="" style="verticalLabelPosition=bottom;html=1;verticalAlign=top;align=center;shape=mxgraph.floorplan.workstation;rotation=-45;" vertex="1" parent="1">
          <mxGeometry x="1110" y="-580" width="50" height="40" as="geometry" />
        </mxCell>
        <mxCell id="b0zFCqW9HWxMV5RH-Vs3-60" value="" style="verticalLabelPosition=bottom;html=1;verticalAlign=top;align=center;shape=mxgraph.floorplan.doorRight;aspect=fixed;rotation=-90;" vertex="1" parent="1">
          <mxGeometry x="850" y="-830" width="80" height="85" as="geometry" />
        </mxCell>
        <mxCell id="b0zFCqW9HWxMV5RH-Vs3-61" value="" style="verticalLabelPosition=bottom;html=1;verticalAlign=top;align=center;shape=mxgraph.floorplan.wallCorner;fillColor=strokeColor;direction=north" vertex="1" parent="1">
          <mxGeometry x="840" y="-830" width="390" height="460" as="geometry" />
        </mxCell>
      </root>
    </mxGraphModel>
  </diagram>
</mxfile>
